<svg xmlns="http://www.w3.org/2000/svg" width="51.945" height="66.34" viewBox="0 0 51.945 66.34"><defs><style>.a{fill:#c42228;}</style></defs><g transform="translate(807.497 -147.982)"><path class="a" d="M-756.294,198.863l-4.01-7.065a3.543,3.543,0,0,0-4.813-1.325l-.033.018a17.209,17.209,0,0,1-3.464,1.485,15.39,15.39,0,0,1-4.7.66,12.759,12.759,0,0,1-4.866-.907,12.289,12.289,0,0,1-3.877-2.475,11.538,11.538,0,0,1-2.6-3.67,10.8,10.8,0,0,1-.949-4.5,11.213,11.213,0,0,1,.907-4.5,11.34,11.34,0,0,1,2.516-3.67,12.067,12.067,0,0,1,3.753-2.474,11.948,11.948,0,0,1,4.7-.907,14.5,14.5,0,0,1,4.413.619,28.076,28.076,0,0,1,3.289,1.254c.035.016.069.034.1.054l.031.018a3.315,3.315,0,0,0,4.551-1.227l4.216-7.428a5.4,5.4,0,0,0-2.519-7.616l-.061-.026a39.753,39.753,0,0,0-6.31-2.062,34.368,34.368,0,0,0-7.812-.9v-4.24l-.6,0a32.64,32.64,0,0,0-12.83,2.653,33.329,33.329,0,0,0-10.514,7.142,33.328,33.328,0,0,0-7.11,10.536,32.642,32.642,0,0,0-2.614,12.838A32.639,32.639,0,0,0-804.88,194a33.329,33.329,0,0,0,7.118,10.54,33.329,33.329,0,0,0,10.525,7.14,32.639,32.639,0,0,0,12.84,2.643h.6v-4.365h.068a33.077,33.077,0,0,0,8.5-.99,44.757,44.757,0,0,0,6.351-2.145l.062-.029A5.659,5.659,0,0,0-756.294,198.863Zm-7.584,1.266a18,18,0,0,1-1.767.755,26.586,26.586,0,0,1-3.382.907,21.872,21.872,0,0,1-4.454.412,23.76,23.76,0,0,1-8.413-1.485c-.187-.07-.371-.144-.554-.218.053.146.1.3.141.448a5.373,5.373,0,0,1-3.817,6.571c-.066.017-.132.032-.2.047q.354.147.715.286a32.171,32.171,0,0,0,10.611,2.081v3.181a31.433,31.433,0,0,1-11.77-2.54,32.134,32.134,0,0,1-10.148-6.884,32.136,32.136,0,0,1-6.864-10.162,31.449,31.449,0,0,1-2.522-12.376,31.447,31.447,0,0,1,2.518-12.369,32.133,32.133,0,0,1,6.856-10.158,32.136,32.136,0,0,1,10.138-6.887,31.435,31.435,0,0,1,11.76-2.548v3.035a31.01,31.01,0,0,0-10.321,1.919,5.373,5.373,0,0,1,3.973,6.157,5.393,5.393,0,0,1-.3,1.061,22.1,22.1,0,0,1,7.787-1.389,23.82,23.82,0,0,1,4.207.33,31.768,31.768,0,0,1,3.217.742q.68.227,1.325.471a1.315,1.315,0,0,1,.845,1.232v.458a.7.7,0,0,1-1.017.625,11.9,11.9,0,0,0-1.895-.723,17.372,17.372,0,0,0-2.846-.7,23,23,0,0,0-3.836-.289,20.313,20.313,0,0,0-7.918,1.485,17.862,17.862,0,0,0-6.021,4.042,18.044,18.044,0,0,0-3.835,6.021,20.118,20.118,0,0,0-1.361,7.424,20.118,20.118,0,0,0,1.361,7.423,17.7,17.7,0,0,0,3.877,6.021,18.1,18.1,0,0,0,6.145,4.042,21.39,21.39,0,0,0,8.166,1.485,19.465,19.465,0,0,0,4.042-.371,18.53,18.53,0,0,0,2.969-.866,11.275,11.275,0,0,0,1.582-.693,1.092,1.092,0,0,1,1.455.42l.023.039A1.1,1.1,0,0,1-763.878,200.129Z" transform="translate(0)"/><circle class="a" cx="4.393" cy="4.393" r="4.393" transform="matrix(0.973, -0.23, 0.23, 0.973, -779.538, 177.962)"/></g></svg>